<svg width="283" height="65" xmlns="http://www.w3.org/2000/svg" viewBox="0 0 283.46 64.46">
    <path d="M116.71,16.8h-17.17l-8,41.47h10.15l2.96-15.6h6.38c4.06,0,5.68,1.97,5.68,5.51,0,2.32-.23,5.1-.23,7.19,0,1.22.12,2.38.52,2.9h10.03v-.52c-.52-.35-.81-1.33-.81-2.79,0-2.67.29-5.92.29-8,0-4.18-1.74-6.67-4.93-7.83v-.17c5.51-1.62,8.76-4.99,8.76-11.08,0-7.08-5.51-11.08-13.63-11.08ZM113.63,35.19h-7.48l1.97-10.32h7.02c3.36,0,5.05,1.68,5.05,4.58,0,4.06-3.02,5.74-6.55,5.74Z"
          style="fill:#039;"/>
    <path d="M155.05,15.99c-13.8,0-22.21,11.72-22.27,25.17-.06,11.72,7.95,18.1,18.68,18.1,13.8-.06,21.98-11.66,21.98-24.82,0-11.54-7.31-18.44-18.39-18.44ZM151.74,50.96c-6.26,0-8.7-4.47-8.7-9.92,0-7.54,3.31-16.76,11.54-16.82,6.15,0,8.58,4.52,8.58,10.32,0,7.42-3.19,16.41-11.43,16.41Z"
          style="fill:#039;"/>
    <path d="M201.68,16.8l-7.19,10.67c-1.91,2.9-3.94,6.32-3.94,6.32h-.12s-.64-3.6-1.45-6.44l-3.02-10.56h-10.61l8.41,25.98-2.96,15.49h10.15l2.9-15.14,18.79-26.33h-10.96Z"
          style="fill:#039;"/>
    <polygon
            points="244.26 25.15 245.88 16.8 215.78 16.8 207.77 58.27 238.51 58.27 240.2 49.63 219.55 49.63 221.29 40.64 238.51 40.64 240.02 32.75 222.85 32.75 224.3 25.15 244.26 25.15"
            style="fill:#039;"/>
    <path d="M283.46,27.88c0-7.08-5.51-11.08-13.63-11.08h-17.17l-8,41.47h10.15l2.96-15.6h6.38c4.06,0,5.68,1.97,5.68,5.51,0,2.32-.23,5.1-.23,7.19,0,1.22.12,2.38.52,2.9h10.03v-.52c-.52-.35-.81-1.33-.81-2.79,0-2.67.29-5.92.29-8,0-4.18-1.74-6.67-4.93-7.83v-.17c5.51-1.62,8.76-4.99,8.76-11.08ZM266.76,35.19h-7.48l1.97-10.32h7.02c3.36,0,5.05,1.68,5.05,4.58,0,4.06-3.02,5.74-6.55,5.74Z"
          style="fill:#039;"/>
    <path d="M47.41,3.05c-10.87-7.55-28.91-.6-40.31,15.53-3.12,4.38-5.52,9.24-7.11,14.42,1.18-2.63,2.6-5.13,4.26-7.48C13.95,11.82,29.3,5.91,38.53,12.33c9.23,6.42,8.87,22.74-.83,36.45-6.37,9.04-15.2,14.65-23.12,15.61,10.35.92,23.08-6.03,31.87-18.46,11.4-16.13,11.83-35.32.96-42.88Z"
          style="fill:#039;"/>
    <path d="M33.07,45.68s-13.03,15.09-21.36,6.7c-5.23-5.27-2.24-14.13,1.7-19.47,4.29-5.82,10.42-9.01,15.5-9.3,4.01-.23,7.74,2.82,8.64,6.68.57,2.43.21,4.34.21,4.34.73-2.15.63-4.49.41-6.12-.03-.27-.15-.92-.16-.98-.62-3.46-2.23-6.36-4.89-8.15-7.05-4.77-18.58-.14-25.77,10.36C.15,40.23.05,52.61,7.09,57.39c1.92,1.3,4.18,1.87,6.58,1.85.39.03,10.76.76,19.4-13.56Z"
          style="fill:#039;"/>
    <path d="M59.62,16.8c.3,2.75.25,5.64-.12,8.58h11.27l-6.38,32.89h10.09l6.38-32.89h11.77l1.62-8.58h-34.64Z"
          style="fill:#039;"/>
    <path d="M47.41,3.05c-10.87-7.55-28.91-.6-40.31,15.53-3.12,4.38-5.52,9.24-7.11,14.42,1.18-2.63,2.6-5.13,4.26-7.48C13.95,11.82,29.3,5.91,38.53,12.33c9.23,6.42,8.87,22.74-.83,36.45-6.37,9.04-15.2,14.65-23.12,15.61,10.35.92,23.08-6.03,31.87-18.46,11.4-16.13,11.83-35.32.96-42.88Z"
          style="fill:#039;"/>
</svg>